<svg width="42" height="15" viewBox="0 0 42 15" fill="none" xmlns="http://www.w3.org/2000/svg">
<rect width="42" height="15" rx="3" fill="#4E4E4E"/>
<rect x="3.3" y="1.3" width="12.4" height="12.4" rx="2.7" fill="#4E4E4E" stroke="white" stroke-width="0.6"/>
<path d="M10.9504 5.616C10.9291 5.68533 10.9238 5.76 10.9344 5.84C10.9451 5.92 10.9504 5.99733 10.9504 6.072C10.9291 6.072 10.8891 6.08 10.8304 6.096C10.7771 6.10667 10.7264 6.11467 10.6784 6.12C10.6571 6.12 10.6331 6.12 10.6064 6.12C10.5798 6.11467 10.5584 6.11467 10.5424 6.12L10.3904 6.152H9.94244C9.83044 6.15733 9.7291 6.16 9.63844 6.16C9.5531 6.15467 9.45444 6.152 9.34244 6.152C9.3211 6.152 9.2891 6.15467 9.24644 6.16C9.2091 6.16533 9.18244 6.16533 9.16644 6.16C9.16644 6.18667 9.16377 6.208 9.15844 6.224C9.1531 6.24 9.15044 6.26133 9.15044 6.288C9.15577 6.304 9.15844 6.344 9.15844 6.408C9.16377 6.472 9.16644 6.544 9.16644 6.624C9.17177 6.69867 9.17444 6.768 9.17444 6.832C9.17977 6.896 9.18244 6.936 9.18244 6.952V7.312C9.18244 7.35467 9.18244 7.38933 9.18244 7.416C9.18777 7.44267 9.19577 7.48 9.20644 7.528H9.67044C9.75577 7.528 9.83577 7.53067 9.91044 7.536C9.9851 7.54133 10.0678 7.544 10.1584 7.544C10.2064 7.544 10.2624 7.54667 10.3264 7.552C10.3958 7.55733 10.4491 7.55467 10.4864 7.544C10.4918 7.592 10.4971 7.64267 10.5024 7.696C10.5078 7.74933 10.5104 7.79733 10.5104 7.84V7.968C10.4891 7.968 10.4491 7.97067 10.3904 7.976C10.3318 7.98133 10.2784 7.98667 10.2304 7.992H9.89444C9.78777 8.008 9.6891 8.016 9.59844 8.016C9.50777 8.016 9.40644 8.016 9.29444 8.016C9.2731 8.016 9.24644 8.01867 9.21444 8.024C9.18244 8.02933 9.15844 8.02933 9.14244 8.024V8.32C9.14244 8.39467 9.14244 8.472 9.14244 8.552C9.14777 8.632 9.15844 8.70133 9.17444 8.76C9.17444 8.856 9.17444 8.94667 9.17444 9.032C9.17977 9.112 9.18244 9.18667 9.18244 9.256V9.392C9.1931 9.38667 9.2251 9.38933 9.27844 9.4C9.3371 9.41067 9.40644 9.42133 9.48644 9.432C9.56644 9.44267 9.6331 9.45067 9.68644 9.456C9.7451 9.46133 9.79844 9.472 9.84644 9.488C9.8731 9.49867 9.9291 9.50667 10.0144 9.512C10.1051 9.512 10.1638 9.512 10.1904 9.512C10.3238 9.528 10.4544 9.53867 10.5824 9.544C10.7104 9.54933 10.8411 9.55733 10.9744 9.568H11.2624C11.2838 9.568 11.3078 9.56533 11.3344 9.56C11.3611 9.54933 11.3798 9.544 11.3904 9.544C11.4171 9.64 11.4304 9.73333 11.4304 9.824C11.4358 9.91467 11.4384 10.0053 11.4384 10.096C11.3958 10.1227 11.3424 10.136 11.2784 10.136C11.2144 10.136 11.1531 10.1387 11.0944 10.144C11.0571 10.144 11.0171 10.1413 10.9744 10.136C10.9318 10.1307 10.8891 10.128 10.8464 10.128C10.7398 10.1333 10.6118 10.1333 10.4624 10.128C10.3184 10.1227 10.1931 10.1253 10.0864 10.136H9.96644C9.90777 10.1253 9.8251 10.1173 9.71844 10.112C9.6171 10.1067 9.53977 10.104 9.48644 10.104C9.42777 10.0987 9.33444 10.0987 9.20644 10.104C9.07844 10.1147 8.8651 10.1227 8.56644 10.128C8.55577 10.128 8.51844 10.128 8.45444 10.128C8.39577 10.128 8.3291 10.128 8.25444 10.128C8.1851 10.1333 8.11844 10.136 8.05444 10.136C7.99577 10.1413 7.9611 10.144 7.95044 10.144C7.95044 10.032 7.94244 9.92267 7.92644 9.816C7.91577 9.70933 7.91044 9.61067 7.91044 9.52C7.91044 9.46667 7.90777 9.40533 7.90244 9.336C7.8971 9.26667 7.89977 9.208 7.91044 9.16C7.9211 8.98933 7.92377 8.82133 7.91844 8.656C7.91844 8.49067 7.91844 8.32267 7.91844 8.152C7.91844 8.11467 7.91577 8.048 7.91044 7.952C7.9051 7.856 7.9051 7.76533 7.91044 7.68L7.89444 7.432C7.8891 7.39467 7.89177 7.328 7.90244 7.232C7.91844 7.13067 7.92377 7.04267 7.91844 6.968C7.9131 6.84533 7.90777 6.73867 7.90244 6.648C7.8971 6.552 7.89177 6.44 7.88644 6.312C7.8811 6.2 7.8811 6.09067 7.88644 5.984C7.8971 5.872 7.90244 5.76533 7.90244 5.664C7.90244 5.63733 7.90244 5.616 7.90244 5.6C7.90777 5.57867 7.92377 5.55733 7.95044 5.536L8.35844 5.552C8.43844 5.55733 8.5291 5.55733 8.63044 5.552C8.7371 5.54667 8.83044 5.54667 8.91044 5.552C8.93177 5.552 8.95044 5.552 8.96644 5.552C8.98777 5.54667 9.0091 5.544 9.03044 5.544C9.04644 5.544 9.0811 5.544 9.13444 5.544C9.18777 5.544 9.24377 5.544 9.30244 5.544C9.3611 5.544 9.41444 5.544 9.46244 5.544C9.51044 5.544 9.53977 5.54667 9.55044 5.552C9.5611 5.55733 9.5931 5.56267 9.64644 5.568C9.69977 5.57333 9.73977 5.576 9.76644 5.576C9.78244 5.576 9.80644 5.576 9.83844 5.576C9.87044 5.57067 9.90244 5.568 9.93444 5.568C9.97177 5.568 10.0064 5.568 10.0384 5.568C10.0704 5.568 10.0944 5.568 10.1104 5.568C10.1691 5.57867 10.2224 5.584 10.2704 5.584C10.3238 5.57867 10.3798 5.57867 10.4384 5.584C10.4438 5.584 10.4704 5.58667 10.5184 5.592C10.5718 5.592 10.6304 5.59467 10.6944 5.6C10.7584 5.60533 10.8144 5.61067 10.8624 5.616C10.9158 5.616 10.9451 5.616 10.9504 5.616Z" fill="white"/>
<path d="M21.7722 10.136C21.7455 10.136 21.7215 10.1333 21.7002 10.128C21.6789 10.128 21.6575 10.1253 21.6362 10.12C21.6202 10.12 21.6069 10.12 21.5962 10.12C21.5429 10.1253 21.4975 10.128 21.4602 10.128C21.4282 10.128 21.3962 10.1253 21.3642 10.12C21.3322 10.1147 21.3002 10.1067 21.2682 10.096C21.2362 10.0853 21.1962 10.0693 21.1482 10.048C21.1109 10.0267 21.0682 10.0107 21.0202 10C20.9722 9.99467 20.9295 9.97867 20.8922 9.952C20.8282 9.904 20.7562 9.864 20.6762 9.832C20.6015 9.79467 20.5322 9.752 20.4682 9.704C20.4575 9.69333 20.4442 9.68267 20.4282 9.672C20.4122 9.656 20.3989 9.64 20.3882 9.624C20.3349 9.58667 20.2842 9.552 20.2362 9.52C20.1935 9.48267 20.1535 9.44 20.1162 9.392C20.0949 9.37067 20.0629 9.33067 20.0202 9.272C19.9829 9.208 19.9429 9.14133 19.9002 9.072C19.8629 9.00267 19.8282 8.936 19.7962 8.872C19.7695 8.808 19.7562 8.76267 19.7562 8.736C19.7562 8.656 19.7402 8.57867 19.7082 8.504C19.6762 8.42933 19.6602 8.352 19.6602 8.272C19.6602 8.26667 19.6602 8.24267 19.6602 8.2C19.6602 8.15733 19.6602 8.10667 19.6602 8.048C19.6602 7.984 19.6602 7.91467 19.6602 7.84C19.6602 7.76533 19.6602 7.696 19.6602 7.632C19.6655 7.552 19.6709 7.48533 19.6762 7.432C19.6815 7.37333 19.6869 7.34133 19.6922 7.336C19.7509 7.08 19.8122 6.848 19.8762 6.64C19.9455 6.432 20.0575 6.24267 20.2122 6.072C20.2549 5.98133 20.3215 5.91733 20.4122 5.88C20.4815 5.83733 20.5482 5.79467 20.6122 5.752C20.6762 5.704 20.7455 5.65867 20.8202 5.616C20.8949 5.584 20.9695 5.55733 21.0442 5.536C21.1242 5.51467 21.1882 5.49333 21.2362 5.472C21.3215 5.46667 21.4042 5.45067 21.4842 5.424C21.5695 5.39733 21.6495 5.384 21.7242 5.384C21.7882 5.384 21.8629 5.38667 21.9482 5.392C22.0335 5.392 22.1082 5.40533 22.1722 5.432C22.2575 5.44267 22.3429 5.464 22.4282 5.496C22.5189 5.52267 22.5989 5.56267 22.6682 5.616C22.7002 5.64267 22.7322 5.66133 22.7642 5.672C22.7962 5.68267 22.8255 5.69333 22.8522 5.704V5.832C22.8522 5.85867 22.8522 5.89067 22.8522 5.928C22.8575 5.96533 22.8602 5.99467 22.8602 6.016C22.8602 6.05867 22.8549 6.09067 22.8442 6.112C22.8335 6.12267 22.8282 6.13867 22.8282 6.16C22.8282 6.176 22.8229 6.184 22.8122 6.184H22.7962C22.7802 6.184 22.7642 6.176 22.7482 6.16C22.7215 6.144 22.6949 6.136 22.6682 6.136C22.6415 6.13067 22.6175 6.12533 22.5962 6.12C22.5642 6.11467 22.5375 6.10933 22.5162 6.104C22.4949 6.09333 22.4629 6.088 22.4202 6.088C22.3935 6.088 22.3642 6.088 22.3322 6.088C22.3002 6.088 22.2682 6.09067 22.2362 6.096C22.1935 6.10133 22.1349 6.104 22.0602 6.104C21.9909 6.09867 21.9429 6.09867 21.9162 6.104C21.8789 6.10933 21.8469 6.11733 21.8202 6.128C21.7989 6.13867 21.7775 6.14933 21.7562 6.16C21.7082 6.18667 21.6655 6.21067 21.6282 6.232C21.5909 6.25333 21.5509 6.27733 21.5082 6.304C21.3962 6.39467 21.2949 6.49333 21.2042 6.6C21.0762 6.75467 20.9802 6.90667 20.9162 7.056C20.8522 7.2 20.8202 7.37067 20.8202 7.568V8.056L21.0042 8.68C21.0149 8.744 21.0389 8.8 21.0762 8.848C21.1135 8.896 21.1455 8.94667 21.1722 9C21.2629 9.09067 21.3429 9.16267 21.4122 9.216C21.4869 9.264 21.5615 9.31467 21.6362 9.368C21.6789 9.38933 21.7295 9.41067 21.7882 9.432C21.8469 9.448 21.8975 9.46933 21.9402 9.496C21.9722 9.496 22.0122 9.504 22.0602 9.52C22.1135 9.536 22.2095 9.544 22.3482 9.544H22.6202C22.6629 9.544 22.6975 9.544 22.7242 9.544C22.7562 9.53867 22.7855 9.52267 22.8122 9.496H22.8522L22.9962 9.904C22.9482 9.93067 22.9029 9.952 22.8602 9.968C22.8229 9.984 22.7802 10.0027 22.7322 10.024C22.6522 10.0453 22.5802 10.0613 22.5162 10.072C22.4522 10.088 22.3829 10.1093 22.3082 10.136H21.7722ZM24.2024 7.096C24.2397 7.08533 24.285 7.06933 24.3384 7.048C24.3917 7.02667 24.445 7.016 24.4984 7.016C24.5677 7.016 24.6317 7.016 24.6904 7.016C24.749 7.01067 24.813 7.008 24.8824 7.008C24.9357 7.008 24.9864 7.01067 25.0344 7.016C25.0877 7.016 25.1357 7.024 25.1784 7.04C25.189 7.04 25.2024 7.04267 25.2184 7.048C25.2344 7.05333 25.2557 7.06933 25.2824 7.096C25.3357 7.112 25.3864 7.13867 25.4344 7.176C25.4824 7.21333 25.525 7.25867 25.5624 7.312C25.605 7.36533 25.6424 7.42133 25.6744 7.48C25.7117 7.53333 25.7437 7.58667 25.7704 7.64C25.797 7.68267 25.813 7.73867 25.8184 7.808C25.829 7.87733 25.8424 7.93333 25.8584 7.976C25.8584 8.05067 25.861 8.12267 25.8664 8.192C25.877 8.26133 25.8824 8.33333 25.8824 8.408C25.8824 8.53067 25.8797 8.648 25.8744 8.76C25.869 8.872 25.8664 8.98933 25.8664 9.112L25.8504 9.376C25.8504 9.39733 25.8397 9.43467 25.8184 9.488C25.797 9.54133 25.7837 9.58133 25.7784 9.608C25.7624 9.66133 25.741 9.72533 25.7144 9.8C25.6877 9.86933 25.669 9.90933 25.6584 9.92C25.6317 9.94667 25.613 9.97067 25.6024 9.992C25.5917 10.0133 25.581 10.0347 25.5704 10.056C25.565 10.0773 25.5544 10.096 25.5384 10.112C25.5277 10.128 25.5064 10.144 25.4744 10.16C25.4477 10.1707 25.4157 10.1867 25.3784 10.208C25.341 10.2347 25.3064 10.2587 25.2744 10.28C25.2477 10.2907 25.2344 10.2987 25.2344 10.304C25.2344 10.3147 25.2157 10.3253 25.1784 10.336L25.0344 10.368C24.9704 10.3787 24.917 10.3813 24.8744 10.376C24.837 10.3707 24.7944 10.368 24.7464 10.368C24.597 10.368 24.4477 10.3387 24.2984 10.28C24.2504 10.28 24.2024 10.2693 24.1544 10.248C24.1117 10.2267 24.0797 10.2027 24.0584 10.176C24.0317 10.1547 24.005 10.1307 23.9784 10.104C23.9517 10.0827 23.925 10.0587 23.8984 10.032C23.8557 9.984 23.821 9.936 23.7944 9.888C23.7677 9.84 23.741 9.78933 23.7144 9.736C23.6877 9.67733 23.6584 9.61867 23.6264 9.56C23.5944 9.496 23.573 9.42667 23.5624 9.352C23.5517 9.22933 23.541 9.11733 23.5304 9.016C23.525 8.91467 23.5224 8.81333 23.5224 8.712V8.384C23.517 8.37333 23.5144 8.352 23.5144 8.32C23.5144 8.288 23.517 8.26667 23.5224 8.256C23.5224 8.22933 23.5224 8.20267 23.5224 8.176C23.5277 8.144 23.533 8.11467 23.5384 8.088C23.5437 8.04533 23.5464 8.00267 23.5464 7.96C23.5464 7.91733 23.5597 7.87467 23.5864 7.832C23.581 7.84267 23.5837 7.83467 23.5944 7.808C23.6104 7.776 23.6264 7.744 23.6424 7.712C23.6584 7.67467 23.6717 7.64267 23.6824 7.616C23.693 7.58933 23.6984 7.57867 23.6984 7.584L23.7544 7.48C23.7704 7.464 23.7864 7.44533 23.8024 7.424C23.8184 7.40267 23.8397 7.37867 23.8664 7.352C23.8984 7.32533 23.9384 7.29067 23.9864 7.248C24.0397 7.20533 24.1117 7.15467 24.2024 7.096ZM24.7864 8.424C24.765 8.424 24.7437 8.43467 24.7224 8.456C24.7064 8.47733 24.6957 8.496 24.6904 8.512C24.653 8.592 24.6344 8.65867 24.6344 8.712C24.6344 8.856 24.685 8.952 24.7864 9C24.813 9 24.8344 8.992 24.8504 8.976C24.8717 8.95467 24.8824 8.93333 24.8824 8.912C24.8824 8.85867 24.8877 8.79733 24.8984 8.728C24.9144 8.65867 24.909 8.58667 24.8824 8.512C24.8557 8.48533 24.8397 8.464 24.8344 8.448C24.829 8.432 24.813 8.424 24.7864 8.424ZM27.2441 7.936C27.2494 7.94667 27.2521 7.97333 27.2521 8.016C27.2521 8.05867 27.2521 8.09067 27.2521 8.112C27.2414 8.13867 27.2361 8.16533 27.2361 8.192C27.2361 8.21333 27.2361 8.23733 27.2361 8.264C27.2361 8.296 27.2387 8.35733 27.2441 8.448C27.2494 8.53333 27.2521 8.59467 27.2521 8.632V8.808C27.2521 8.856 27.2521 8.904 27.2521 8.952C27.2574 9 27.2601 9.048 27.2601 9.096C27.2601 9.13333 27.2574 9.17067 27.2521 9.208C27.2467 9.24 27.2467 9.27467 27.2521 9.312C27.2521 9.344 27.2547 9.376 27.2601 9.408C27.2654 9.43467 27.2681 9.464 27.2681 9.496V10.224C27.2681 10.2507 27.2707 10.2773 27.2761 10.304C27.2867 10.3307 27.2841 10.3413 27.2681 10.336C27.2147 10.336 27.1534 10.3413 27.0841 10.352C27.0147 10.368 26.9507 10.376 26.8921 10.376C26.8441 10.376 26.8014 10.3733 26.7641 10.368C26.7321 10.3627 26.6867 10.3467 26.6281 10.32V10.216C26.6014 10.1147 26.5854 10.024 26.5801 9.944C26.5801 9.85867 26.5801 9.77867 26.5801 9.704C26.5801 9.64533 26.5801 9.592 26.5801 9.544C26.5801 9.49067 26.5854 9.43733 26.5961 9.384C26.5961 9.35733 26.5907 9.336 26.5801 9.32C26.5801 9.31467 26.5774 9.30133 26.5721 9.28C26.5721 9.25333 26.5721 9.22667 26.5721 9.2C26.5721 9.17333 26.5721 9.14933 26.5721 9.128C26.5721 9.10133 26.5721 9.08267 26.5721 9.072V8.736C26.5721 8.672 26.5694 8.608 26.5641 8.544C26.5641 8.48 26.5694 8.416 26.5801 8.352C26.5854 8.34667 26.5881 8.32267 26.5881 8.28C26.5934 8.232 26.5987 8.18133 26.6041 8.128C26.6094 8.06933 26.6121 8.016 26.6121 7.968C26.6174 7.91467 26.6201 7.88267 26.6201 7.872C26.6254 7.78667 26.6254 7.70133 26.6201 7.616C26.6201 7.53067 26.6227 7.448 26.6281 7.368C26.6281 7.21333 26.6254 7.064 26.6201 6.92C26.6201 6.77067 26.6227 6.62133 26.6281 6.472C26.6281 6.376 26.6281 6.28267 26.6281 6.192C26.6281 6.096 26.6254 6.00267 26.6201 5.912C26.6147 5.864 26.6121 5.82667 26.6121 5.8C26.6174 5.77333 26.6201 5.74933 26.6201 5.728C26.6254 5.70133 26.6281 5.67467 26.6281 5.648C26.6334 5.62133 26.6334 5.58133 26.6281 5.528C26.6281 5.47467 26.6307 5.424 26.6361 5.376C26.6414 5.32267 26.6441 5.272 26.6441 5.224C26.6441 5.17067 26.6414 5.12533 26.6361 5.088C26.6361 5.05067 26.6361 5.00533 26.6361 4.952L26.6761 4.912C26.7294 4.912 26.7881 4.91467 26.8521 4.92C26.9161 4.92533 26.9721 4.92533 27.0201 4.92C27.0627 4.91467 27.0947 4.912 27.1161 4.912C27.1374 4.912 27.1694 4.912 27.2121 4.912C27.2387 4.912 27.2601 4.92 27.2761 4.936C27.2867 5.112 27.2867 5.28533 27.2761 5.456C27.2654 5.62667 27.2601 5.80533 27.2601 5.992V6.552C27.2547 6.744 27.2467 6.92267 27.2361 7.088C27.2307 7.25333 27.2281 7.416 27.2281 7.576C27.2281 7.63467 27.2307 7.696 27.2361 7.76C27.2414 7.81867 27.2441 7.87733 27.2441 7.936ZM28.7675 7.936C28.7728 7.94667 28.7755 7.97333 28.7755 8.016C28.7755 8.05867 28.7755 8.09067 28.7755 8.112C28.7648 8.13867 28.7595 8.16533 28.7595 8.192C28.7595 8.21333 28.7595 8.23733 28.7595 8.264C28.7595 8.296 28.7622 8.35733 28.7675 8.448C28.7728 8.53333 28.7755 8.59467 28.7755 8.632V8.808C28.7755 8.856 28.7755 8.904 28.7755 8.952C28.7808 9 28.7835 9.048 28.7835 9.096C28.7835 9.13333 28.7808 9.17067 28.7755 9.208C28.7702 9.24 28.7702 9.27467 28.7755 9.312C28.7755 9.344 28.7782 9.376 28.7835 9.408C28.7888 9.43467 28.7915 9.464 28.7915 9.496V10.224C28.7915 10.2507 28.7942 10.2773 28.7995 10.304C28.8102 10.3307 28.8075 10.3413 28.7915 10.336C28.7382 10.336 28.6768 10.3413 28.6075 10.352C28.5382 10.368 28.4742 10.376 28.4155 10.376C28.3675 10.376 28.3248 10.3733 28.2875 10.368C28.2555 10.3627 28.2102 10.3467 28.1515 10.32V10.216C28.1248 10.1147 28.1088 10.024 28.1035 9.944C28.1035 9.85867 28.1035 9.77867 28.1035 9.704C28.1035 9.64533 28.1035 9.592 28.1035 9.544C28.1035 9.49067 28.1088 9.43733 28.1195 9.384C28.1195 9.35733 28.1142 9.336 28.1035 9.32C28.1035 9.31467 28.1008 9.30133 28.0955 9.28C28.0955 9.25333 28.0955 9.22667 28.0955 9.2C28.0955 9.17333 28.0955 9.14933 28.0955 9.128C28.0955 9.10133 28.0955 9.08267 28.0955 9.072V8.736C28.0955 8.672 28.0928 8.608 28.0875 8.544C28.0875 8.48 28.0928 8.416 28.1035 8.352C28.1088 8.34667 28.1115 8.32267 28.1115 8.28C28.1168 8.232 28.1222 8.18133 28.1275 8.128C28.1328 8.06933 28.1355 8.016 28.1355 7.968C28.1408 7.91467 28.1435 7.88267 28.1435 7.872C28.1488 7.78667 28.1488 7.70133 28.1435 7.616C28.1435 7.53067 28.1462 7.448 28.1515 7.368C28.1515 7.21333 28.1488 7.064 28.1435 6.92C28.1435 6.77067 28.1462 6.62133 28.1515 6.472C28.1515 6.376 28.1515 6.28267 28.1515 6.192C28.1515 6.096 28.1488 6.00267 28.1435 5.912C28.1382 5.864 28.1355 5.82667 28.1355 5.8C28.1408 5.77333 28.1435 5.74933 28.1435 5.728C28.1488 5.70133 28.1515 5.67467 28.1515 5.648C28.1568 5.62133 28.1568 5.58133 28.1515 5.528C28.1515 5.47467 28.1542 5.424 28.1595 5.376C28.1648 5.32267 28.1675 5.272 28.1675 5.224C28.1675 5.17067 28.1648 5.12533 28.1595 5.088C28.1595 5.05067 28.1595 5.00533 28.1595 4.952L28.1995 4.912C28.2528 4.912 28.3115 4.91467 28.3755 4.92C28.4395 4.92533 28.4955 4.92533 28.5435 4.92C28.5862 4.91467 28.6182 4.912 28.6395 4.912C28.6608 4.912 28.6928 4.912 28.7355 4.912C28.7622 4.912 28.7835 4.92 28.7995 4.936C28.8102 5.112 28.8102 5.28533 28.7995 5.456C28.7888 5.62667 28.7835 5.80533 28.7835 5.992V6.552C28.7782 6.744 28.7702 6.92267 28.7595 7.088C28.7542 7.25333 28.7515 7.416 28.7515 7.576C28.7515 7.63467 28.7542 7.696 28.7595 7.76C28.7648 7.81867 28.7675 7.87733 28.7675 7.936ZM31.9149 8.464C31.9149 8.49067 31.9016 8.51733 31.8749 8.544C31.8589 8.56 31.8349 8.57067 31.8029 8.576C31.7709 8.58133 31.7416 8.584 31.7149 8.584C31.6776 8.59467 31.6323 8.6 31.5789 8.6C31.5256 8.6 31.4803 8.6 31.4429 8.6C31.3683 8.6 31.3123 8.60267 31.2749 8.608C31.2376 8.608 31.1763 8.61333 31.0909 8.624L30.6109 8.664V8.76C30.6109 8.81867 30.6189 8.87733 30.6349 8.936C30.6509 8.98933 30.6803 9.04533 30.7229 9.104C30.7496 9.14667 30.7816 9.18667 30.8189 9.224C30.8563 9.26133 30.8936 9.28533 30.9309 9.296C30.9629 9.30667 30.9923 9.31733 31.0189 9.328C31.0456 9.33867 31.0696 9.34933 31.0909 9.36C31.1176 9.36533 31.1416 9.36533 31.1629 9.36C31.3069 9.36 31.4109 9.344 31.4749 9.312C31.5443 9.28 31.6269 9.24 31.7229 9.192C31.7443 9.192 31.7656 9.18133 31.7869 9.16C31.8136 9.13867 31.8323 9.12533 31.8429 9.12C31.8696 9.10933 31.9069 9.08267 31.9549 9.04C32.0083 8.99733 32.0483 8.97067 32.0749 8.96C32.0909 8.97067 32.0963 9.008 32.0909 9.072C32.0856 9.13067 32.0883 9.18667 32.0989 9.24V9.328V9.488C32.0723 9.52 32.0509 9.544 32.0349 9.56C32.0243 9.57067 32.0136 9.58133 32.0029 9.592C31.9976 9.60267 31.9869 9.616 31.9709 9.632C31.9549 9.648 31.9309 9.672 31.8989 9.704C31.8029 9.8 31.7016 9.864 31.5949 9.896C31.5363 9.928 31.4723 9.952 31.4029 9.968C31.3336 9.97867 31.2776 9.992 31.2349 10.008C31.2083 10.0133 31.1843 10.016 31.1629 10.016C31.1416 10.0213 31.1203 10.024 31.0989 10.024H31.0349C30.9336 10.024 30.8349 10.0213 30.7389 10.016C30.6429 10.016 30.5416 9.98933 30.4349 9.936C30.3976 9.94133 30.3443 9.93067 30.2749 9.904C30.2109 9.87733 30.1683 9.85067 30.1469 9.824C30.0883 9.792 30.0349 9.752 29.9869 9.704C29.9443 9.656 29.8963 9.61333 29.8429 9.576C29.7683 9.52267 29.7149 9.46667 29.6829 9.408C29.6509 9.34933 29.6216 9.288 29.5949 9.224C29.5683 9.176 29.5443 9.12267 29.5229 9.064C29.5016 9.00533 29.4803 8.94667 29.4589 8.888C29.4589 8.82933 29.4563 8.77333 29.4509 8.72C29.4509 8.66667 29.4509 8.61333 29.4509 8.56V8.264C29.4509 8.168 29.4696 8.05333 29.5069 7.92C29.5496 7.78667 29.6003 7.672 29.6589 7.576C29.6749 7.55467 29.6936 7.53333 29.7149 7.512C29.7309 7.49067 29.7496 7.46933 29.7709 7.448C29.7976 7.42667 29.8243 7.40267 29.8509 7.376C29.8669 7.37067 29.8829 7.36267 29.8989 7.352C29.9203 7.34133 29.9496 7.32533 29.9869 7.304C30.0029 7.29333 30.0216 7.27467 30.0429 7.248C30.0696 7.22133 30.1043 7.20267 30.1469 7.192C30.2056 7.17067 30.2616 7.14933 30.3149 7.128C30.3683 7.10133 30.4083 7.088 30.4349 7.088C30.4723 7.088 30.5389 7.09067 30.6349 7.096C30.7363 7.10133 30.8323 7.10667 30.9229 7.112C30.9709 7.11733 31.0109 7.12533 31.0429 7.136C31.0749 7.14667 31.0989 7.152 31.1149 7.152C31.1576 7.15733 31.1923 7.16267 31.2189 7.168C31.2509 7.17333 31.2829 7.18133 31.3149 7.192C31.4109 7.224 31.4803 7.25867 31.5229 7.296C31.5709 7.328 31.6109 7.36267 31.6429 7.4C31.6643 7.42667 31.6829 7.45867 31.6989 7.496C31.7203 7.528 31.7416 7.55733 31.7629 7.584C31.7896 7.616 31.8136 7.66133 31.8349 7.72C31.8616 7.77333 31.8803 7.82667 31.8909 7.88C31.9016 7.92267 31.9096 7.97867 31.9149 8.048C31.9203 8.11733 31.9229 8.17867 31.9229 8.232C31.9229 8.28533 31.9203 8.32533 31.9149 8.352C31.9149 8.37867 31.9149 8.416 31.9149 8.464ZM31.2269 8C31.2269 7.98933 31.2269 7.97067 31.2269 7.944C31.2269 7.912 31.2216 7.89067 31.2109 7.88C31.1683 7.81067 31.1069 7.77067 31.0269 7.76C30.9523 7.744 30.8856 7.74133 30.8269 7.752C30.7896 7.76267 30.7656 7.776 30.7549 7.792C30.7443 7.808 30.7283 7.832 30.7069 7.864C30.6963 7.87467 30.6883 7.88533 30.6829 7.896C30.6776 7.90667 30.6696 7.91733 30.6589 7.928C30.6483 7.93867 30.6403 7.95467 30.6349 7.976C30.6349 7.992 30.6323 8.008 30.6269 8.024C30.6163 8.05067 30.6109 8.06933 30.6109 8.08C30.6109 8.09067 30.6163 8.11733 30.6269 8.16C30.6483 8.17067 30.6883 8.18133 30.7469 8.192C30.8109 8.19733 30.8749 8.2 30.9389 8.2C31.0083 8.2 31.0723 8.19733 31.1309 8.192C31.1949 8.18133 31.2376 8.17067 31.2589 8.16C31.2643 8.15467 31.2589 8.14133 31.2429 8.12C31.2323 8.09333 31.2269 8.05333 31.2269 8ZM34.1358 7.84C34.0718 7.85067 34.0131 7.86667 33.9598 7.888C33.9064 7.90933 33.8558 7.94933 33.8078 8.008C33.7331 8.08267 33.6798 8.168 33.6478 8.264C33.6211 8.36 33.6078 8.46933 33.6078 8.592V8.792C33.6344 8.84533 33.6531 8.904 33.6638 8.968C33.6744 9.032 33.7064 9.088 33.7598 9.136C33.7864 9.184 33.8211 9.232 33.8638 9.28C33.9064 9.328 33.9491 9.38133 33.9918 9.44C34.0184 9.456 34.0531 9.46933 34.0958 9.48C34.1384 9.48533 34.1731 9.50133 34.1998 9.528C34.2691 9.55467 34.3491 9.57067 34.4398 9.576C34.5304 9.576 34.6131 9.576 34.6878 9.576C34.7251 9.57067 34.7624 9.56267 34.7998 9.552C34.8371 9.536 34.8958 9.528 34.9758 9.528C35.0024 9.51733 35.0238 9.528 35.0398 9.56C35.0558 9.58667 35.0718 9.62133 35.0878 9.664C35.1038 9.69067 35.1198 9.72533 35.1358 9.768C35.1518 9.80533 35.1651 9.84 35.1758 9.872C35.1864 9.89333 35.1971 9.91467 35.2078 9.936C35.2238 9.952 35.2318 9.976 35.2318 10.008C35.2211 10.0133 35.2078 10.0213 35.1918 10.032C35.1758 10.048 35.1571 10.0613 35.1358 10.072C35.1251 10.0987 35.1011 10.1147 35.0638 10.12C35.0264 10.1307 34.9971 10.1467 34.9758 10.168C34.7838 10.264 34.5891 10.312 34.3918 10.312C34.3438 10.312 34.2984 10.312 34.2558 10.312C34.2131 10.3173 34.1598 10.3173 34.0958 10.312C34.0478 10.312 33.9838 10.2987 33.9038 10.272C33.8718 10.272 33.8238 10.272 33.7598 10.272C33.6958 10.272 33.6478 10.2693 33.6158 10.264C33.5891 10.2587 33.5624 10.248 33.5358 10.232C33.5144 10.216 33.4904 10.2027 33.4638 10.192C33.4371 10.1813 33.4104 10.1707 33.3838 10.16C33.3571 10.1493 33.3304 10.1387 33.3038 10.128C33.2451 10.1013 33.1918 10.0587 33.1438 10C33.1011 9.94667 33.0531 9.896 32.9998 9.848C32.9518 9.80533 32.8984 9.74933 32.8398 9.68C32.7864 9.60533 32.7544 9.544 32.7438 9.496C32.7224 9.43733 32.6931 9.37333 32.6558 9.304C32.6238 9.23467 32.6051 9.16267 32.5998 9.088C32.5891 9.056 32.5838 9.02933 32.5838 9.008C32.5838 8.98667 32.5838 8.96533 32.5838 8.944V8.592C32.5838 8.46933 32.5864 8.36 32.5918 8.264C32.6024 8.16267 32.6318 8.064 32.6798 7.968C32.7064 7.91467 32.7304 7.856 32.7518 7.792C32.7784 7.728 32.8184 7.66933 32.8717 7.616C32.8717 7.58933 32.8824 7.56533 32.9038 7.544C32.9251 7.51733 32.9491 7.496 32.9758 7.48L33.1118 7.328C33.1704 7.30133 33.2158 7.27733 33.2478 7.256C33.2798 7.22933 33.3171 7.20267 33.3598 7.176C33.4344 7.14933 33.5064 7.128 33.5758 7.112C33.6451 7.09067 33.7064 7.08 33.7598 7.08C33.8451 7.064 33.9144 7.05067 33.9678 7.04C34.0264 7.024 34.1011 7.032 34.1918 7.064C34.2398 7.06933 34.2878 7.07733 34.3358 7.088C34.3891 7.09333 34.4371 7.10667 34.4798 7.128C34.5224 7.13867 34.5544 7.14667 34.5758 7.152C34.5971 7.15733 34.6238 7.16533 34.6558 7.176C34.7091 7.18667 34.7598 7.20533 34.8078 7.232C34.8611 7.25867 34.9091 7.28533 34.9518 7.312L35.0078 7.328C35.0131 7.328 35.0131 7.34933 35.0078 7.392C35.0078 7.42933 35.0024 7.46933 34.9918 7.512C34.9811 7.53867 34.9758 7.568 34.9758 7.6C34.9758 7.62667 34.9758 7.66667 34.9758 7.72V7.864C34.9758 7.87467 34.9678 7.888 34.9518 7.904C34.9464 7.90933 34.9411 7.912 34.9358 7.912C34.9091 7.912 34.8851 7.90933 34.8638 7.904C34.8424 7.89333 34.8184 7.888 34.7918 7.888C34.7544 7.87733 34.7091 7.864 34.6558 7.848C34.6024 7.82667 34.5571 7.816 34.5198 7.816C34.4504 7.816 34.3838 7.816 34.3198 7.816C34.2611 7.816 34.1998 7.824 34.1358 7.84ZM37.3888 9.8C37.3888 9.85867 37.3861 9.92 37.3808 9.984C37.3808 10.048 37.3834 10.1093 37.3888 10.168C37.3888 10.2 37.3888 10.2453 37.3888 10.304C37.3888 10.368 37.3861 10.416 37.3808 10.448C37.3861 10.4693 37.3808 10.488 37.3648 10.504C37.3488 10.5253 37.3354 10.5413 37.3248 10.552H37.1168C37.0901 10.552 37.0581 10.5493 37.0208 10.544C36.9888 10.544 36.9594 10.544 36.9328 10.544C36.9114 10.5547 36.8821 10.56 36.8448 10.56C36.8074 10.56 36.7674 10.56 36.7248 10.56C36.6874 10.56 36.6501 10.5573 36.6128 10.552C36.5808 10.552 36.5621 10.552 36.5568 10.552C36.5301 10.5253 36.5141 10.5067 36.5088 10.496C36.5088 10.4907 36.5088 10.4747 36.5088 10.448V9.68L36.4928 9.208L36.5088 8.672L36.5008 8.208L36.4688 7.824C36.4048 7.824 36.3274 7.82667 36.2368 7.832C36.1461 7.83733 36.0768 7.83467 36.0288 7.824C35.9381 7.808 35.8661 7.80533 35.8128 7.816C35.7648 7.82133 35.7034 7.824 35.6288 7.824V7.312H35.6768C35.7034 7.312 35.7248 7.312 35.7408 7.312C35.7621 7.30667 35.7781 7.30667 35.7888 7.312C35.8154 7.33333 35.8528 7.34133 35.9008 7.336C35.9541 7.32533 35.9781 7.31467 35.9728 7.304C36.0314 7.29867 36.0661 7.296 36.0768 7.296C36.0928 7.296 36.1248 7.296 36.1728 7.296C36.2154 7.296 36.2768 7.29867 36.3568 7.304C36.4421 7.304 36.4981 7.30133 36.5247 7.296C36.5247 7.296 36.5247 7.28 36.5247 7.248C36.5247 7.216 36.5247 7.17867 36.5247 7.136C36.5247 7.09333 36.5247 7.048 36.5247 7C36.5247 6.952 36.5247 6.91467 36.5247 6.888C36.5354 6.78667 36.5408 6.696 36.5408 6.616C36.5461 6.53067 36.5514 6.43467 36.5568 6.328C36.5621 6.25333 36.5648 6.18133 36.5648 6.112C36.5648 6.04267 36.5648 5.97067 36.5648 5.896C36.5648 5.82133 36.5674 5.73067 36.5728 5.624C36.5834 5.512 36.5861 5.41333 36.5808 5.328C36.5808 5.30133 36.5754 5.28533 36.5648 5.28C36.5594 5.26933 36.5568 5.25067 36.5568 5.224C36.5568 5.19733 36.5594 5.17867 36.5648 5.168C36.5701 5.152 36.5861 5.144 36.6128 5.144C36.6608 5.144 36.7114 5.14667 36.7648 5.152C36.8181 5.15733 36.8688 5.16 36.9168 5.16C36.9968 5.16 37.0688 5.16 37.1328 5.16C37.2021 5.16 37.2581 5.16267 37.3008 5.168C37.3808 5.17867 37.4421 5.18933 37.4848 5.2C37.4848 5.2 37.4848 5.21333 37.4848 5.24C37.4848 5.26133 37.4848 5.29067 37.4848 5.328C37.4848 5.36 37.4821 5.39467 37.4768 5.432C37.4768 5.46933 37.4768 5.504 37.4768 5.536C37.4714 5.66933 37.4688 5.78667 37.4688 5.888C37.4688 5.984 37.4714 6.09867 37.4768 6.232C37.4768 6.29067 37.4741 6.352 37.4688 6.416C37.4688 6.48 37.4714 6.54133 37.4768 6.6C37.4768 6.616 37.4741 6.65067 37.4688 6.704C37.4688 6.75733 37.4661 6.816 37.4608 6.88C37.4554 6.93867 37.4501 6.99467 37.4448 7.048C37.4394 7.10133 37.4368 7.136 37.4368 7.152C37.4368 7.17867 37.4421 7.20267 37.4528 7.224C37.4634 7.24533 37.4741 7.256 37.4848 7.256C37.5114 7.256 37.5461 7.26133 37.5888 7.272C37.6314 7.27733 37.6661 7.28 37.6928 7.28C37.7194 7.28 37.7461 7.28533 37.7728 7.296C37.8048 7.30133 37.8474 7.304 37.9008 7.304C37.9488 7.304 37.9968 7.30667 38.0448 7.312C38.0981 7.312 38.1541 7.312 38.2128 7.312C38.2234 7.312 38.2341 7.31467 38.2448 7.32C38.2554 7.32 38.2661 7.32 38.2768 7.32H38.3088C38.3354 7.4 38.3488 7.49067 38.3488 7.592C38.3488 7.69333 38.3354 7.77067 38.3088 7.824H38.2608C38.1541 7.83467 38.0501 7.84533 37.9488 7.856C37.8474 7.86133 37.7434 7.864 37.6368 7.864C37.6101 7.864 37.5781 7.86667 37.5408 7.872C37.5034 7.872 37.4714 7.872 37.4448 7.872C37.4448 7.88267 37.4421 7.896 37.4368 7.912C37.4368 7.92267 37.4368 7.93333 37.4368 7.944V7.976V8.048C37.4368 8.096 37.4368 8.14133 37.4368 8.184C37.4421 8.22133 37.4421 8.26133 37.4368 8.304L37.4528 8.728L37.4208 9.088C37.4208 9.11467 37.4181 9.16267 37.4128 9.232C37.4128 9.296 37.4101 9.368 37.4048 9.448C37.4048 9.52267 37.4021 9.59467 37.3968 9.664C37.3914 9.728 37.3888 9.77333 37.3888 9.8Z" fill="white"/>
</svg>
